<svg width="64" height="64" viewBox="0 0 64 64" fill="none" xmlns="http://www.w3.org/2000/svg">
<path d="M32 5.33325C17.28 5.33325 5.33334 17.2799 5.33334 31.9999C5.33334 46.7199 17.28 58.6666 32 58.6666C46.72 58.6666 58.6667 46.7199 58.6667 31.9999C58.6667 17.2799 46.72 5.33325 32 5.33325ZM32 15.9999C37.1467 15.9999 41.3333 20.1866 41.3333 25.3333C41.3333 30.4799 37.1467 34.6666 32 34.6666C26.8533 34.6666 22.6667 30.4799 22.6667 25.3333C22.6667 20.1866 26.8533 15.9999 32 15.9999ZM32 53.3332C26.5867 53.3332 20.1867 51.1466 15.6267 45.6533C20.2976 41.9885 26.063 39.9967 32 39.9967C37.937 39.9967 43.7024 41.9885 48.3733 45.6533C43.8133 51.1466 37.4133 53.3332 32 53.3332Z" fill="#2F88FF"/>
</svg>
