<svg width="64" height="64" viewBox="0 0 64 64" fill="none" xmlns="http://www.w3.org/2000/svg">
<path d="M25.75 56.22C31.605 50.525 40.71 41.52 42.66 39.485C45.085 36.96 44.36 34.9 43.33 32.63C42.995 31.885 37.495 19.465 33.96 11.45C34.105 11.38 35.45 10.43 35.78 10.285C36.83 9.815 37.52 10.605 37.985 11.585C38.325 12.31 46.24 35.075 48.17 40.245C48.485 41.085 49.24 42.185 48.815 43.11C48.34 44.145 46.42 44.79 45.5 45.355C44.335 46.065 43.14 46.725 41.935 47.36C39.555 48.615 37.13 49.79 34.8 51.135C32 52.75 29.165 54.28 26.35 55.86C26.155 55.975 25.955 56.1 25.75 56.22Z" fill="white"/>
<path d="M55.46 50.55C55.075 50.715 54.655 50.83 54.395 50.93C49.01 52.995 43.395 54.35 37.84 55.88C34.735 56.735 31.64 57.645 28.555 58.565C28.115 58.7 27.54 58.885 26.9 59.095C29.545 57.63 32.205 56.195 34.82 54.68C36.8 53.535 38.825 52.485 40.845 51.415C43.265 50.135 45.675 48.83 47.97 47.335C49.045 46.63 50.495 46.285 51.32 45.24C52.17 44.17 52.12 42.615 51.74 41.37C49.925 35.51 48.1 29.645 45.81 23.955C44.725 21.25 43.635 18.545 42.805 15.75C42.675 15.32 42.54 14.84 42.405 14.34C44.63 13.075 44.355 13.925 45.37 16.245C47.075 20.14 48.65 24 49.93 28.055C50.315 29.26 50.685 30.46 51.06 31.665C52.08 34.935 53.105 38.205 54.125 41.475C54.595 42.99 55.07 44.51 55.55 46.025C55.96 47.38 57.32 49.76 55.46 50.55Z" fill="white"/>
<path d="M8.60498 20.08C7.72998 21.135 5.76499 23.5 5.56499 23.74C4.05499 25.53 3.97999 27.57 4.22999 28.935C4.68999 31.465 10.57 53.495 13.94 60.635C14.3 61.405 14.725 61.93 15.195 62.275C17.88 65.8 26.4 62.355 29.39 61.55C33.755 60.37 38.165 59.32 42.51 58.045C46.87 56.765 51.13 55.295 55.45 53.9C56.815 53.46 58.4 52.925 59.235 51.67C60.265 50.125 59.895 47.975 59.395 46.15C58.345 42.345 56.87 38.68 55.55 34.965C53.825 30.11 52.39 25.15 50.415 20.385C49.795 18.885 49.155 17.4 48.49 15.92C47.96 14.74 47.655 13.45 47.03 12.315C46.06 10.575 45.165 10.3 43.28 10.995C42.815 11.17 42.01 11.535 41.53 11.245C41.165 11.025 41.1 10.4 40.97 10.03C40.715 9.305 40.41 8.435 39.97 7.795C39.805 7.555 39.625 7.275 39.44 7.055C39.19 6.76 37.67 6.05 35.155 7.115C34.545 7.375 27.1 11.855 27.1 11.855L8.60498 20.08ZM25.75 56.22C18.385 44.56 21.145 24.685 33.965 11.45C34.11 11.38 35.455 10.43 35.785 10.285C36.835 9.815 37.525 10.605 37.99 11.585C38.33 12.31 46.245 35.075 48.175 40.245C48.49 41.085 49.245 42.185 48.82 43.11C48.345 44.145 46.425 44.79 45.505 45.355C44.34 46.065 43.145 46.725 41.94 47.36C39.56 48.615 37.135 49.79 34.805 51.135C32.005 52.75 29.17 54.28 26.355 55.86C26.155 55.975 25.955 56.1 25.75 56.22ZM55.46 50.55C55.075 50.715 54.655 50.83 54.395 50.93C49.01 52.995 43.395 54.35 37.84 55.88C34.735 56.735 31.64 57.645 28.555 58.565C28.115 58.7 27.54 58.885 26.9 59.095C29.545 57.63 32.205 56.195 34.82 54.68C36.8 53.535 38.825 52.485 40.845 51.415C43.265 50.135 45.675 48.83 47.97 47.335C49.045 46.63 50.495 46.285 51.32 45.24C52.17 44.17 52.12 42.615 51.74 41.37C49.925 35.51 48.1 29.645 45.81 23.955C44.725 21.25 43.635 18.545 42.805 15.75C42.675 15.32 42.54 14.84 42.405 14.34C44.63 13.075 44.355 13.925 45.37 16.245C47.075 20.14 48.65 24 49.93 28.055C50.315 29.26 50.685 30.46 51.06 31.665C52.08 34.935 53.105 38.205 54.125 41.475C54.595 42.99 55.07 44.51 55.55 46.025C55.96 47.38 57.32 49.76 55.46 50.55Z" fill="#2F2F2F"/>
<path d="M22.535 59.135L27.445 54.57C33.225 48.925 40.89 41.335 42.66 39.49C45.085 36.965 44.36 34.905 43.33 32.635C43.11 32.145 30.49 3.42 30.185 2.775C29.24 0.795002 27.98 -0.109998 26.76 0.250002C26.35 0.370002 25.97 0.545002 25.61 0.760002C25.02 1.115 23.785 2.23 22.66 3.31C21.925 4.01 13.35 14.355 8.60501 20.08C8.60501 20.08 20.675 57.28 21.085 58.68C21.495 60.085 22.535 59.135 22.535 59.135Z" fill="#FCC21B"/>
<path d="M25.15 17.635C25.42 17.41 25.72 17.19 25.975 16.945C26.365 16.565 27.105 15.92 27.035 15.33C27 15 26.83 14.74 26.57 14.605C26.455 14.545 26.315 14.51 26.16 14.505C25.23 14.49 24.22 15.32 23.57 15.89C23.12 16.28 22.61 16.61 22.145 16.975C21.16 17.75 20.335 18.73 19.405 19.575C18.55 20.36 17.885 21.315 17.125 22.18C16.375 23.03 15.535 23.785 14.82 24.67C14.56 24.99 14.29 25.25 14.345 25.685C14.4 26.115 14.735 26.635 15.135 26.815C15.77 27.1 16.33 26.28 16.72 25.925C19.67 23.27 22.09 20.185 25.15 17.635ZM27.76 19.255C26.925 19.65 26.03 20.63 25.675 20.98C24.47 22.165 22.975 23.2 21.865 24.445C21.195 25.195 20.515 25.94 19.765 26.61C18.91 27.37 17.805 28.125 17.205 29.115C16.825 29.735 16.7 30.925 17.6 31.18C18.73 31.505 19.32 29.85 20.01 29.25C21.03 28.36 22.175 27.61 23.145 26.655C24.29 25.52 25.345 24.3 26.49 23.16C27.12 22.535 29.38 21.21 29.375 20.3C29.375 19.915 29.255 19.675 29.005 19.38C28.69 19 28.235 19.035 27.76 19.255Z" fill="#2F2F2F"/>
</svg>
