<svg width="80" height="64" viewBox="0 0 80 64" fill="none" xmlns="http://www.w3.org/2000/svg">
<path d="M23.2969 45.625C23.2969 45.625 28.9297 44.2031 31.8281 40.375" stroke="#6F6F6D" stroke-width="1.5" stroke-miterlimit="10"/>
<path d="M30.0234 42.1797C29.9687 40.7031 30.1875 39.5 30.625 38.7891C31.2812 38.3516 32.4844 38.1328 33.9062 38.1328C33.9609 39.6094 33.7422 40.8125 33.3047 41.5234C32.5937 42.0156 31.4453 42.2344 30.0234 42.1797Z" fill="#6F6F6D"/>
<path d="M23.0781 57C24.6487 57 25.9219 56.2165 25.9219 55.25C25.9219 54.2835 24.6487 53.5 23.0781 53.5C21.5076 53.5 20.2344 54.2835 20.2344 55.25C20.2344 56.2165 21.5076 57 23.0781 57Z" fill="#F4A19A"/>
<path d="M22.2031 58.5859C21.9297 58.5859 21.7109 58.3125 21.7109 57.9297V56.3984C21.7109 56.0156 21.9297 55.7422 22.2031 55.7422C22.4766 55.7422 22.6953 56.0156 22.6953 56.3984V57.9297C22.6953 58.3125 22.4766 58.5859 22.2031 58.5859ZM23.9531 58.5859C23.6797 58.5859 23.4609 58.3125 23.4609 57.9297V56.3984C23.4609 56.0156 23.6797 55.7422 23.9531 55.7422C24.2266 55.7422 24.4453 56.0156 24.4453 56.3984V57.9297C24.4453 58.3125 24.2266 58.5859 23.9531 58.5859Z" fill="#F4A19A"/>
<path d="M30.2422 48.9609C30.2422 52.6797 26.9609 55.6875 22.8594 55.6875H9.78906V42.1797H22.8594C26.9609 42.1797 30.2422 45.1875 30.2422 48.9609Z" fill="#CFDAE8"/>
<path d="M17.7734 48.8516C18.7031 48.8516 19.4687 49.3438 19.9609 50.0547C18.375 50.1641 17.1172 51.5859 17.1172 53.3359C17.1172 55.1406 18.4844 56.6719 20.1797 56.6719H20.4531V60.1719C20.4531 61.7031 19.25 62.9062 17.7734 62.9062C16.2969 62.9062 15.0938 61.7031 15.0938 60.1719V51.5859C15.0938 50.0547 16.2969 48.8516 17.7734 48.8516Z" fill="#CFDAE8"/>
<path d="M17.1172 53.3359C17.1172 51.5859 18.375 50.1641 19.9609 50.0547C20.2344 50.4922 20.4531 51.0391 20.4531 51.5859V56.6172H20.1797C18.4844 56.6172 17.1172 55.1406 17.1172 53.3359Z" fill="#6F6F6D"/>
<path d="M17.7734 62.9062C19.25 62.9062 20.4531 61.7031 20.4531 60.1719H15.0938C15.0938 61.7031 16.2969 62.9062 17.7734 62.9062Z" fill="#3E4347"/>
<path d="M9.02344 57C9.02344 55.7969 7.875 54.8125 6.34375 54.6484V51.5312C6.34375 50 7.54687 48.7969 9.02344 48.7969C10.5 48.7969 11.7031 50 11.7031 51.5312V60.1719C11.7031 61.7031 10.5 62.9062 9.02344 62.9062C7.54687 62.9062 6.34375 61.7031 6.34375 60.1719V59.2969C7.82031 59.1875 9.02344 58.2031 9.02344 57Z" fill="#CFDAE8"/>
<path d="M9.02344 57C9.02344 58.2031 7.875 59.1875 6.34375 59.3516V54.7031C7.82031 54.8125 9.02344 55.7969 9.02344 57Z" fill="#6F6F6D"/>
<path d="M9.02344 62.9062C7.54687 62.9062 6.34375 61.7031 6.34375 60.1719H11.7031C11.7031 61.7031 10.5 62.9062 9.02344 62.9062Z" fill="#3E4347"/>
<path d="M27.7812 47.9219C28.6016 47.9219 29.3672 48.3594 29.8047 49.0156C28.3828 49.125 27.2344 50.4375 27.2344 52.0234C27.2344 53.6641 28.4922 55.0312 30.0234 55.0312H30.2969V58.2578C30.2969 59.625 29.2031 60.7734 27.8359 60.7734C26.4687 60.7734 25.4297 59.6797 25.4297 58.2578V50.4375C25.375 49.0703 26.4687 47.9219 27.7812 47.9219Z" fill="#CFDAE8"/>
<path d="M27.2344 52.0234C27.2344 50.4375 28.3828 49.125 29.8047 49.0156C30.0781 49.3984 30.2422 49.8906 30.2422 50.4375V55.0312H29.9688C28.4375 55.0312 27.2344 53.6641 27.2344 52.0234Z" fill="#6F6F6D"/>
<path d="M27.7812 60.7734C29.1484 60.7734 30.2422 59.6797 30.2422 58.2578H25.375C25.375 59.625 26.4687 60.7734 27.7812 60.7734Z" fill="#3E4347"/>
<path d="M9.07812 32.5547C7.60156 31.7344 6.61718 30.0938 6.61718 30.0938C6.23437 34.4141 7.76562 35.4531 8.64062 35.4531C9.84375 35.5078 10.7734 33.4297 9.07812 32.5547ZM17.7187 32.5547C19.1953 31.7344 20.125 30.0938 20.125 30.0938C20.5625 34.4141 18.9766 35.4531 18.1016 35.4531C16.9531 35.5078 15.9687 33.4297 17.7187 32.5547Z" fill="#F6C799"/>
<path d="M25.7031 33.1015C23.4062 33.0468 21.4922 33.375 20.3437 34.1953C19.6328 35.3984 19.25 37.5312 19.3047 40.1015C21.6016 40.1562 23.7344 40.0468 24.6641 39.0078C25.5937 37.9687 25.7578 35.6718 25.7031 33.1015Z" fill="#6F6F6D"/>
<path d="M25.1016 34.6328C23.4609 34.5782 22.1484 34.8516 21.3281 35.3985C20.8359 36.2735 20.5625 37.6953 20.6172 39.5547C22.2578 39.6094 23.6797 39.5 24.3906 38.7891C25.0469 38.0782 25.1563 36.4375 25.1016 34.6328Z" fill="#F4A19A"/>
<path d="M1.09375 33.1015C3.39063 33.0468 5.30469 33.375 6.45313 34.1953C7.16406 35.3984 7.54688 37.5312 7.49219 40.1015C5.19531 40.1562 3.0625 40.0468 2.13281 39.0078C1.20313 37.9687 1.03906 35.6718 1.09375 33.1015Z" fill="#6F6F6D"/>
<path d="M1.69531 34.6328C3.33594 34.5782 4.64844 34.8516 5.46875 35.3985C5.96094 36.2735 6.23438 37.6953 6.17969 39.5547C4.53906 39.6094 3.11719 39.5 2.40625 38.7891C1.75 38.0782 1.64063 36.4375 1.69531 34.6328Z" fill="#F4A19A"/>
<path d="M22.0391 44.9688C22.0391 50.7656 13.4531 53.9922 13.4531 53.9922C13.4531 53.9922 4.86719 50.7656 4.86719 44.9688C4.86719 36.4375 8.20313 32.0078 13.4531 32.0078C18.6484 32.0078 22.0391 35.1797 22.0391 44.9688Z" fill="#DAE5EF"/>
<path d="M18.8672 33.9219C15.9687 37.0391 14 41.0312 16.8984 44.6953C18.8125 47.1016 20.3437 47.1016 21.7656 46.7187C21.9297 46.1719 22.0391 45.625 22.0391 45.0234C22.0391 39.2812 21.1641 35.8359 18.8672 33.9219ZM9.89844 44.6953C12.7422 41.0859 10.8828 37.2031 8.09375 34.1406C5.63281 36.2187 4.75781 39.8828 4.75781 45.0234C4.75781 45.625 4.86719 46.2266 5.03125 46.7187C6.45312 47.1016 7.98438 47.1016 9.89844 44.6953Z" fill="#6F6F6D"/>
<path d="M16.4609 42.0703C16.4609 42.0703 17.4453 43.711 19.25 43.1641C21.0547 42.6172 21.1641 40.7032 21.1641 40.7032C21.1641 40.7032 20.1797 39.0625 18.375 39.6094C16.5156 40.1563 16.4609 42.0703 16.4609 42.0703Z" fill="white"/>
<path d="M18.8125 43C19.5676 43 20.1797 42.29 20.1797 41.4141C20.1797 40.5382 19.5676 39.8281 18.8125 39.8281C18.0574 39.8281 17.4453 40.5382 17.4453 41.4141C17.4453 42.29 18.0574 43 18.8125 43Z" fill="#3E4347"/>
<path d="M16.4609 42.0702C16.4609 42.0702 17.9922 39.664 20.4531 40.6484C21.9844 41.2499 22.5312 40.2655 22.5312 40.2655C21.7109 40.3749 21.3828 40.0468 20.4531 39.6093C18.7578 38.789 16.4609 39.2265 16.4609 42.0702Z" fill="#3E4347"/>
<path d="M10.3359 42.0703C10.3359 42.0703 9.35156 43.711 7.54688 43.1641C5.74219 42.6172 5.63281 40.7032 5.63281 40.7032C5.63281 40.7032 6.61719 39.0625 8.42188 39.6094C10.2813 40.1563 10.3359 42.0703 10.3359 42.0703Z" fill="white"/>
<path d="M7.98438 43C8.73945 43 9.35156 42.29 9.35156 41.4141C9.35156 40.5382 8.73945 39.8281 7.98438 39.8281C7.2293 39.8281 6.61719 40.5382 6.61719 41.4141C6.61719 42.29 7.2293 43 7.98438 43Z" fill="#3E4347"/>
<path d="M10.3359 42.0702C10.3359 42.0702 8.80469 39.664 6.34375 40.6484C4.8125 41.2499 4.26562 40.2655 4.26562 40.2655C5.08594 40.3749 5.41406 40.0468 6.34375 39.6093C8.03906 38.789 10.3359 39.2265 10.3359 42.0702Z" fill="#3E4347"/>
<path d="M6.34375 49.0704C6.34375 45.7345 7.98438 47.4298 13.3984 47.4298C18.8125 47.4298 20.4531 45.7345 20.4531 49.0704C20.4531 53.8282 17.1172 54.7032 13.3984 54.7032C9.67969 54.7032 6.34375 53.7735 6.34375 49.0704Z" fill="#F4A19A"/>
<path d="M11.1016 49.836C10.6094 48.4688 9.67969 47.7032 9.02344 48.086C8.36719 48.5235 8.25782 50 8.69532 51.3672C9.1875 52.7344 10.1172 53.5 10.7734 53.1172C11.4297 52.6797 11.5938 51.2031 11.1016 49.836ZM17.7734 48.086C17.1172 47.6485 16.1875 48.4141 15.6953 49.836C15.2031 51.2031 15.3672 52.6797 15.9688 53.1172C16.625 53.5547 17.5547 52.7891 18.0469 51.3672C18.5391 50 18.4297 48.5235 17.7734 48.086Z" fill="#BC6464"/>
<path d="M68.2969 45.625C68.2969 45.625 73.9297 44.2031 76.8281 40.375" stroke="#6F6F6D" stroke-width="1.5" stroke-miterlimit="10"/>
<path d="M75.0234 42.1797C74.9687 40.7031 75.1875 39.5 75.625 38.7891C76.2812 38.3516 77.4844 38.1328 78.9062 38.1328C78.9609 39.6094 78.7422 40.8125 78.3047 41.5234C77.5937 42.0156 76.4453 42.2344 75.0234 42.1797Z" fill="#6F6F6D"/>
<path d="M68.0781 57C69.6487 57 70.9219 56.2165 70.9219 55.25C70.9219 54.2835 69.6487 53.5 68.0781 53.5C66.5076 53.5 65.2344 54.2835 65.2344 55.25C65.2344 56.2165 66.5076 57 68.0781 57Z" fill="#F4A19A"/>
<path d="M67.2031 58.5859C66.9297 58.5859 66.7109 58.3125 66.7109 57.9297V56.3984C66.7109 56.0156 66.9297 55.7422 67.2031 55.7422C67.4766 55.7422 67.6953 56.0156 67.6953 56.3984V57.9297C67.6953 58.3125 67.4766 58.5859 67.2031 58.5859ZM68.9531 58.5859C68.6797 58.5859 68.4609 58.3125 68.4609 57.9297V56.3984C68.4609 56.0156 68.6797 55.7422 68.9531 55.7422C69.2266 55.7422 69.4453 56.0156 69.4453 56.3984V57.9297C69.4453 58.3125 69.2266 58.5859 68.9531 58.5859Z" fill="#F4A19A"/>
<path d="M75.2422 48.9609C75.2422 52.6797 71.9609 55.6875 67.8594 55.6875H54.7891V42.1797H67.8594C71.9609 42.1797 75.2422 45.1875 75.2422 48.9609Z" fill="#CFDAE8"/>
<path d="M62.7734 48.8516C63.7031 48.8516 64.4687 49.3438 64.9609 50.0547C63.375 50.1641 62.1172 51.5859 62.1172 53.3359C62.1172 55.1406 63.4844 56.6719 65.1797 56.6719H65.4531V60.1719C65.4531 61.7031 64.25 62.9062 62.7734 62.9062C61.2969 62.9062 60.0938 61.7031 60.0938 60.1719V51.5859C60.0938 50.0547 61.2969 48.8516 62.7734 48.8516Z" fill="#CFDAE8"/>
<path d="M62.1172 53.3359C62.1172 51.5859 63.375 50.1641 64.9609 50.0547C65.2344 50.4922 65.4531 51.0391 65.4531 51.5859V56.6172H65.1797C63.4844 56.6172 62.1172 55.1406 62.1172 53.3359Z" fill="#6F6F6D"/>
<path d="M62.7734 62.9062C64.25 62.9062 65.4531 61.7031 65.4531 60.1719H60.0938C60.0938 61.7031 61.2969 62.9062 62.7734 62.9062Z" fill="#3E4347"/>
<path d="M54.0234 57C54.0234 55.7969 52.875 54.8125 51.3438 54.6484V51.5312C51.3438 50 52.5469 48.7969 54.0234 48.7969C55.5 48.7969 56.7031 50 56.7031 51.5312V60.1719C56.7031 61.7031 55.5 62.9062 54.0234 62.9062C52.5469 62.9062 51.3438 61.7031 51.3438 60.1719V59.2969C52.8203 59.1875 54.0234 58.2031 54.0234 57Z" fill="#CFDAE8"/>
<path d="M54.0234 57C54.0234 58.2031 52.875 59.1875 51.3438 59.3516V54.7031C52.8203 54.8125 54.0234 55.7969 54.0234 57Z" fill="#6F6F6D"/>
<path d="M54.0234 62.9062C52.5469 62.9062 51.3438 61.7031 51.3438 60.1719H56.7031C56.7031 61.7031 55.5 62.9062 54.0234 62.9062Z" fill="#3E4347"/>
<path d="M72.7813 47.9219C73.6016 47.9219 74.3672 48.3594 74.8047 49.0156C73.3828 49.125 72.2344 50.4375 72.2344 52.0234C72.2344 53.6641 73.4922 55.0312 75.0234 55.0312H75.2969V58.2578C75.2969 59.625 74.2031 60.7734 72.8359 60.7734C71.4688 60.7734 70.4297 59.6797 70.4297 58.2578V50.4375C70.375 49.0703 71.4688 47.9219 72.7813 47.9219Z" fill="#CFDAE8"/>
<path d="M72.2344 52.0234C72.2344 50.4375 73.3828 49.125 74.8047 49.0156C75.0781 49.3984 75.2422 49.8906 75.2422 50.4375V55.0312H74.9688C73.4375 55.0312 72.2344 53.6641 72.2344 52.0234Z" fill="#6F6F6D"/>
<path d="M72.7812 60.7734C74.1484 60.7734 75.2422 59.6797 75.2422 58.2578H70.375C70.375 59.625 71.4687 60.7734 72.7812 60.7734Z" fill="#3E4347"/>
<path d="M54.0781 32.5547C52.6016 31.7344 51.6172 30.0938 51.6172 30.0938C51.2344 34.4141 52.7656 35.4531 53.6406 35.4531C54.8438 35.5078 55.7734 33.4297 54.0781 32.5547ZM62.7188 32.5547C64.1953 31.7344 65.125 30.0938 65.125 30.0938C65.5625 34.4141 63.9766 35.4531 63.1016 35.4531C61.9531 35.5078 60.9688 33.4297 62.7188 32.5547Z" fill="#F6C799"/>
<path d="M70.7031 33.1015C68.4062 33.0468 66.4922 33.375 65.3437 34.1953C64.6328 35.3984 64.25 37.5312 64.3047 40.1015C66.6016 40.1562 68.7344 40.0468 69.6641 39.0078C70.5937 37.9687 70.7578 35.6718 70.7031 33.1015Z" fill="#6F6F6D"/>
<path d="M70.1016 34.6328C68.4609 34.5782 67.1484 34.8516 66.3281 35.3985C65.8359 36.2735 65.5625 37.6953 65.6172 39.5547C67.2578 39.6094 68.6797 39.5 69.3906 38.7891C70.0469 38.0782 70.1563 36.4375 70.1016 34.6328Z" fill="#F4A19A"/>
<path d="M46.0938 33.1015C48.3906 33.0468 50.3047 33.375 51.4531 34.1953C52.1641 35.3984 52.5469 37.5312 52.4922 40.1015C50.1953 40.1562 48.0625 40.0468 47.1328 39.0078C46.2031 37.9687 46.0391 35.6718 46.0938 33.1015Z" fill="#6F6F6D"/>
<path d="M46.6953 34.6328C48.3359 34.5782 49.6484 34.8516 50.4688 35.3985C50.9609 36.2735 51.2344 37.6953 51.1797 39.5547C49.5391 39.6094 48.1172 39.5 47.4063 38.7891C46.75 38.0782 46.6406 36.4375 46.6953 34.6328Z" fill="#F4A19A"/>
<path d="M67.0391 44.9688C67.0391 50.7656 58.4531 53.9922 58.4531 53.9922C58.4531 53.9922 49.8672 50.7656 49.8672 44.9688C49.8672 36.4375 53.2031 32.0078 58.4531 32.0078C63.6484 32.0078 67.0391 35.1797 67.0391 44.9688Z" fill="#DAE5EF"/>
<path d="M63.8672 33.9219C60.9687 37.0391 59 41.0312 61.8984 44.6953C63.8125 47.1016 65.3437 47.1016 66.7656 46.7187C66.9297 46.1719 67.0391 45.625 67.0391 45.0234C67.0391 39.2812 66.1641 35.8359 63.8672 33.9219ZM54.8984 44.6953C57.7422 41.0859 55.8828 37.2031 53.0938 34.1406C50.6328 36.2187 49.7578 39.8828 49.7578 45.0234C49.7578 45.625 49.8672 46.2266 50.0312 46.7187C51.4531 47.1016 52.9844 47.1016 54.8984 44.6953Z" fill="#6F6F6D"/>
<path d="M61.4609 42.0703C61.4609 42.0703 62.4453 43.711 64.25 43.1641C66.0547 42.6172 66.1641 40.7032 66.1641 40.7032C66.1641 40.7032 65.1797 39.0625 63.375 39.6094C61.5156 40.1563 61.4609 42.0703 61.4609 42.0703Z" fill="white"/>
<path d="M63.8125 43C64.5676 43 65.1797 42.29 65.1797 41.4141C65.1797 40.5382 64.5676 39.8281 63.8125 39.8281C63.0574 39.8281 62.4453 40.5382 62.4453 41.4141C62.4453 42.29 63.0574 43 63.8125 43Z" fill="#3E4347"/>
<path d="M61.4609 42.0702C61.4609 42.0702 62.9922 39.664 65.4531 40.6484C66.9844 41.2499 67.5312 40.2655 67.5312 40.2655C66.7109 40.3749 66.3828 40.0468 65.4531 39.6093C63.7578 38.789 61.4609 39.2265 61.4609 42.0702Z" fill="#3E4347"/>
<path d="M55.3359 42.0703C55.3359 42.0703 54.3516 43.711 52.5469 43.1641C50.7422 42.6172 50.6328 40.7032 50.6328 40.7032C50.6328 40.7032 51.6172 39.0625 53.4219 39.6094C55.2813 40.1563 55.3359 42.0703 55.3359 42.0703Z" fill="white"/>
<path d="M52.9844 43C53.7395 43 54.3516 42.29 54.3516 41.4141C54.3516 40.5382 53.7395 39.8281 52.9844 39.8281C52.2293 39.8281 51.6172 40.5382 51.6172 41.4141C51.6172 42.29 52.2293 43 52.9844 43Z" fill="#3E4347"/>
<path d="M55.3359 42.0702C55.3359 42.0702 53.8047 39.664 51.3438 40.6484C49.8125 41.2499 49.2656 40.2655 49.2656 40.2655C50.0859 40.3749 50.4141 40.0468 51.3438 39.6093C53.0391 38.789 55.3359 39.2265 55.3359 42.0702Z" fill="#3E4347"/>
<path d="M51.3438 49.0704C51.3438 45.7345 52.9844 47.4298 58.3984 47.4298C63.8125 47.4298 65.4531 45.7345 65.4531 49.0704C65.4531 53.8282 62.1172 54.7032 58.3984 54.7032C54.6797 54.7032 51.3438 53.7735 51.3438 49.0704Z" fill="#F4A19A"/>
<path d="M56.1016 49.836C55.6094 48.4688 54.6797 47.7032 54.0234 48.086C53.3672 48.5235 53.2578 50 53.6953 51.3672C54.1875 52.7344 55.1172 53.5 55.7734 53.1172C56.4297 52.6797 56.5937 51.2031 56.1016 49.836ZM62.7734 48.086C62.1172 47.6485 61.1875 48.4141 60.6953 49.836C60.2031 51.2031 60.3672 52.6797 60.9687 53.1172C61.625 53.5547 62.5547 52.7891 63.0469 51.3672C63.5391 50 63.4297 48.5235 62.7734 48.086Z" fill="#BC6464"/>
<path d="M53.2813 12.0859C50.2734 3.99212 40.4297 7.60149 39.5 11.6484C38.2422 7.32805 28.6719 4.10149 25.7188 12.0859C22.4375 20.9452 38.3516 28.8749 39.5 30.1874C40.6484 29.1484 56.5625 20.7812 53.2813 12.0859Z" fill="#FF5A79"/>
<path d="M54.8125 10.1172C54.4844 9.07812 53.9375 8.14844 53.1719 7.38281C52.4609 6.61719 51.5312 6.01562 50.6016 5.63281C50.1094 5.41406 49.6172 5.30469 49.125 5.19531C48.8516 5.14062 48.6328 5.14062 48.3594 5.08594H47.5938L48.25 5.41406L48.9062 5.74219C49.3438 5.96094 49.7812 6.17969 50.1641 6.45312C50.9844 6.94531 51.6953 7.54688 52.3516 8.20312C53.0078 8.85938 53.5 9.625 53.9922 10.5C54.2109 10.9375 54.4297 11.375 54.5938 11.8125C54.7031 12.0312 54.7578 12.3047 54.8672 12.5234L55.1406 13.2344C55.1953 12.9609 55.1953 12.6875 55.1953 12.4688C55.1953 12.1953 55.1953 11.9219 55.1406 11.7031C55.0859 11.1562 54.9766 10.6094 54.8125 10.1172ZM55.9062 8.64062C55.8516 8.25781 55.7969 7.875 55.6875 7.49219C55.4688 6.72656 55.0312 6.01562 54.4844 5.41406C53.9375 4.8125 53.2812 4.375 52.5703 4.15625C52.1875 4.04687 51.8594 3.9375 51.4766 3.88281C51.3125 3.88281 51.0938 3.82812 50.9297 3.82812C50.7656 3.82812 50.5469 3.82812 50.3828 3.88281C50.5469 3.99219 50.7109 4.04687 50.875 4.15625C50.9844 4.21094 51.1484 4.32031 51.3125 4.375C51.6406 4.53906 51.9141 4.70312 52.1875 4.92188C52.7344 5.30469 53.2812 5.74219 53.7188 6.17969C54.1562 6.67188 54.5391 7.21875 54.9219 7.82031C55.0859 8.09375 55.25 8.42188 55.4141 8.75C55.4688 8.91406 55.5781 9.07812 55.6328 9.24219C55.6875 9.40625 55.7969 9.57031 55.8516 9.78906C55.9062 9.57031 55.9062 9.40625 55.9062 9.1875V8.64062ZM24.3516 11.8125C24.5156 11.375 24.7344 10.8828 24.9531 10.5C25.3906 9.625 25.9375 8.85938 26.5937 8.20312C27.25 7.54688 27.9609 6.94531 28.7812 6.45312C29.1641 6.17969 29.6016 5.96094 30.0391 5.74219L30.6953 5.41406L31.3516 5.08594H30.5859C30.3125 5.08594 30.0938 5.14062 29.8203 5.19531C29.3281 5.30469 28.8359 5.41406 28.3438 5.63281C27.4141 6.01562 26.5391 6.61719 25.8281 7.38281C25.1172 8.14844 24.5156 9.07812 24.1875 10.1172C24.0234 10.6094 23.9141 11.1562 23.8594 11.6484C23.8047 11.9219 23.8047 12.1953 23.8047 12.4141C23.8047 12.6875 23.8047 12.9609 23.8594 13.1797L24.1328 12.4688C24.1875 12.25 24.2422 12.0312 24.3516 11.8125ZM25.2812 6.23437C25.7188 5.74219 26.2656 5.30469 26.8125 4.92188C27.0859 4.75781 27.4141 4.53906 27.6875 4.375C27.8516 4.26562 28.0156 4.21094 28.1797 4.10156C28.3438 3.99219 28.5078 3.9375 28.6719 3.82812C28.5078 3.82812 28.2891 3.77344 28.125 3.77344C27.9609 3.77344 27.7422 3.77344 27.5781 3.82812C27.1953 3.88281 26.8672 3.99219 26.4844 4.10156C25.7188 4.42969 25.0625 4.86719 24.5156 5.41406C23.9687 6.01562 23.5313 6.72656 23.3125 7.49219C23.2031 7.875 23.1484 8.25781 23.0938 8.64062V9.24219C23.0938 9.46094 23.0937 9.625 23.1484 9.84375C23.2031 9.67969 23.3125 9.51562 23.3672 9.29688C23.4766 9.07812 23.5312 8.91406 23.6406 8.75C23.8047 8.42188 23.9688 8.09375 24.1328 7.82031C24.4609 7.21875 24.8438 6.67187 25.2812 6.23437ZM26.2656 22.1484L26.2109 22.2578C26.4844 23.0781 26.9219 23.7344 27.3594 24.3906C27.7969 25.0469 28.3438 25.5938 28.8906 26.0859C29.4375 26.5781 30.0391 27.0703 30.6953 27.5078C31.3516 27.9453 32.0625 28.2734 32.8828 28.4922L32.9375 28.3828C31.8438 27.2891 30.75 26.25 29.6562 25.2109C28.5078 24.2266 27.4141 23.1328 26.2656 22.1484ZM23.9687 23.7891L23.9141 23.8984C24.2969 24.8281 24.7891 25.5937 25.3359 26.3047C25.8828 27.0156 26.4844 27.6719 27.1406 28.2734C27.7969 28.875 28.4531 29.4219 29.2188 29.9687C29.9844 30.4609 30.75 30.9531 31.6797 31.2266L31.7344 31.1172C30.4766 29.8594 29.1641 28.6562 27.9062 27.3984C26.5938 26.1953 25.2812 24.9375 23.9687 23.7891ZM50.1641 26.0859C50.7109 25.5391 51.2578 24.9922 51.6953 24.3906C52.1328 23.7891 52.5703 23.0781 52.8438 22.2578L52.7891 22.1484C51.6406 23.1328 50.5469 24.2266 49.3984 25.2109C48.3047 26.25 47.2109 27.2891 46.1172 28.3828L46.1719 28.4922C46.9922 28.2734 47.7031 27.8906 48.3594 27.5078C49.0156 27.0703 49.5625 26.5781 50.1641 26.0859ZM51.0938 27.3984C49.8359 28.6562 48.5234 29.8594 47.2656 31.1172L47.3203 31.2266C48.25 30.8984 49.0156 30.4609 49.7812 29.9687C50.5469 29.4766 51.2031 28.9297 51.8594 28.2734C52.5156 27.6719 53.1172 27.0156 53.6641 26.3047C54.2109 25.5937 54.7031 24.8281 55.0859 23.8984L55.0312 23.7891C53.7188 24.9375 52.4062 26.1953 51.0938 27.3984Z" fill="#FF5A79"/>
</svg>
