<svg width="64" height="64" viewBox="0 0 64 64" fill="none" xmlns="http://www.w3.org/2000/svg">
<path d="M42.6 30.4C42.6 30.4 52.9 27.8 58.2 20.8" stroke="#6F6F6D" stroke-width="1.5" stroke-miterlimit="10"/>
<path d="M54.9 24.1C54.8 21.4 55.2 19.2 56 17.9C57.2 17.1 59.4 16.7 62 16.7C62.1 19.4 61.7 21.6 60.9 22.9C59.6 23.8 57.5 24.2 54.9 24.1Z" fill="#6F6F6D"/>
<path d="M42.2 51.2C45.0719 51.2 47.4 49.7673 47.4 48C47.4 46.2327 45.0719 44.8 42.2 44.8C39.3281 44.8 37 46.2327 37 48C37 49.7673 39.3281 51.2 42.2 51.2Z" fill="#F4A19A"/>
<path d="M40.6 54.1C40.1 54.1 39.7 53.6 39.7 52.9V50.1C39.7 49.4 40.1 48.9 40.6 48.9C41.1 48.9 41.5 49.4 41.5 50.1V52.9C41.5 53.6 41.1 54.1 40.6 54.1ZM43.8 54.1C43.3 54.1 42.9 53.6 42.9 52.9V50.1C42.9 49.4 43.3 48.9 43.8 48.9C44.3 48.9 44.7 49.4 44.7 50.1V52.9C44.7 53.6 44.3 54.1 43.8 54.1Z" fill="#F4A19A"/>
<path d="M55.3 36.5C55.3 43.3 49.3 48.8 41.8 48.8H17.9V24.1H41.8C49.3 24.1 55.3 29.6 55.3 36.5Z" fill="#CFDAE8"/>
<path d="M32.5 36.3C34.2 36.3 35.6 37.2 36.5 38.5C33.6 38.7 31.3 41.3 31.3 44.5C31.3 47.8 33.8 50.6 36.9 50.6H37.4V57C37.4 59.8 35.2 62 32.5 62C29.8 62 27.6 59.8 27.6 57V41.3C27.6 38.5 29.8 36.3 32.5 36.3Z" fill="#CFDAE8"/>
<path d="M31.3 44.5C31.3 41.3 33.6 38.7 36.5 38.5C37 39.3 37.4 40.3 37.4 41.3V50.5H36.9C33.8 50.5 31.3 47.8 31.3 44.5Z" fill="#6F6F6D"/>
<path d="M32.5 62C35.2 62 37.4 59.8 37.4 57H27.6C27.6 59.8 29.8 62 32.5 62Z" fill="#3E4347"/>
<path d="M16.5 51.2C16.5 49 14.4 47.2 11.6 46.9V41.2C11.6 38.4 13.8 36.2 16.5 36.2C19.2 36.2 21.4 38.4 21.4 41.2V57C21.4 59.8 19.2 62 16.5 62C13.8 62 11.6 59.8 11.6 57V55.4C14.3 55.2 16.5 53.4 16.5 51.2Z" fill="#CFDAE8"/>
<path d="M16.5 51.2C16.5 53.4 14.4 55.2 11.6 55.5V47C14.3 47.2 16.5 49 16.5 51.2Z" fill="#6F6F6D"/>
<path d="M16.5 62C13.8 62 11.6 59.8 11.6 57H21.4C21.4 59.8 19.2 62 16.5 62Z" fill="#3E4347"/>
<path d="M50.8 34.6C52.3 34.6 53.7 35.4 54.5 36.6C51.9 36.8 49.8 39.2 49.8 42.1C49.8 45.1 52.1 47.6 54.9 47.6H55.4V53.5C55.4 56 53.4 58.1 50.9 58.1C48.4 58.1 46.5 56.1 46.5 53.5V39.2C46.4 36.7 48.4 34.6 50.8 34.6Z" fill="#CFDAE8"/>
<path d="M49.8 42.1C49.8 39.2 51.9 36.8 54.5 36.6C55 37.3 55.3 38.2 55.3 39.2V47.6H54.8C52 47.6 49.8 45.1 49.8 42.1Z" fill="#6F6F6D"/>
<path d="M50.8 58.1C53.3 58.1 55.3 56.1 55.3 53.5H46.4C46.4 56 48.4 58.1 50.8 58.1Z" fill="#3E4347"/>
<path d="M16.6 6.5C13.9 5 12.1 2 12.1 2C11.4 9.9 14.2 11.8 15.8 11.8C18 11.9 19.7 8.1 16.6 6.5ZM32.4 6.5C35.1 5 36.8 2 36.8 2C37.6 9.9 34.7 11.8 33.1 11.8C31 11.9 29.2 8.1 32.4 6.5Z" fill="#F6C799"/>
<path d="M47 7.5C42.8 7.4 39.3 8 37.2 9.5C35.9 11.7 35.2 15.6 35.3 20.3C39.5 20.4 43.4 20.2 45.1 18.3C46.8 16.4 47.1 12.2 47 7.5Z" fill="#6F6F6D"/>
<path d="M45.9 10.3C42.9 10.2 40.5 10.7 39 11.7C38.1 13.3 37.6 15.9 37.7 19.3C40.7 19.4 43.3 19.2 44.6 17.9C45.8 16.6 46 13.6 45.9 10.3Z" fill="#F4A19A"/>
<path d="M2 7.5C6.2 7.4 9.7 8 11.8 9.5C13.1 11.7 13.8 15.6 13.7 20.3C9.5 20.4 5.6 20.2 3.9 18.3C2.2 16.4 1.9 12.2 2 7.5Z" fill="#6F6F6D"/>
<path d="M3.09999 10.3C6.09999 10.2 8.49999 10.7 9.99999 11.7C10.9 13.3 11.4 15.9 11.3 19.3C8.29999 19.4 5.69999 19.2 4.39999 17.9C3.19999 16.6 2.99999 13.6 3.09999 10.3Z" fill="#F4A19A"/>
<path d="M40.3 29.2C40.3 39.8 24.6 45.7 24.6 45.7C24.6 45.7 8.89999 39.8 8.89999 29.2C8.89999 13.6 15 5.5 24.6 5.5C34.1 5.5 40.3 11.3 40.3 29.2Z" fill="#DAE5EF"/>
<path d="M34.5 9C29.2 14.7 25.6 22 30.9 28.7C34.4 33.1 37.2 33.1 39.8 32.4C40.1 31.4 40.3 30.4 40.3 29.3C40.3 18.8 38.7 12.5 34.5 9ZM18.1 28.7C23.3 22.1 19.9 15 14.8 9.4C10.3 13.2 8.70001 19.9 8.70001 29.3C8.70001 30.4 8.90001 31.5 9.20001 32.4C11.8 33.1 14.6 33.1 18.1 28.7Z" fill="#6F6F6D"/>
<path d="M30.1 23.9C30.1 23.9 31.9 26.9 35.2 25.9C38.5 24.9 38.7 21.4 38.7 21.4C38.7 21.4 36.9 18.4 33.6 19.4C30.2 20.4 30.1 23.9 30.1 23.9Z" fill="white"/>
<path d="M34.4 25.6C35.7807 25.6 36.9 24.3016 36.9 22.7C36.9 21.0984 35.7807 19.8 34.4 19.8C33.0193 19.8 31.9 21.0984 31.9 22.7C31.9 24.3016 33.0193 25.6 34.4 25.6Z" fill="#3E4347"/>
<path d="M30.1 23.9C30.1 23.9 32.9 19.5 37.4 21.3C40.2 22.4 41.2 20.6 41.2 20.6C39.7 20.8 39.1 20.2 37.4 19.4C34.3 17.9 30.1 18.7 30.1 23.9Z" fill="#3E4347"/>
<path d="M18.9 23.9C18.9 23.9 17.1 26.9 13.8 25.9C10.5 24.9 10.3 21.4 10.3 21.4C10.3 21.4 12.1 18.4 15.4 19.4C18.8 20.4 18.9 23.9 18.9 23.9Z" fill="white"/>
<path d="M14.6 25.6C15.9807 25.6 17.1 24.3016 17.1 22.7C17.1 21.0984 15.9807 19.8 14.6 19.8C13.2193 19.8 12.1 21.0984 12.1 22.7C12.1 24.3016 13.2193 25.6 14.6 25.6Z" fill="#3E4347"/>
<path d="M18.9 23.9C18.9 23.9 16.1 19.5 11.6 21.3C8.79999 22.4 7.79999 20.6 7.79999 20.6C9.29999 20.8 9.89999 20.2 11.6 19.4C14.7 17.9 18.9 18.7 18.9 23.9Z" fill="#3E4347"/>
<path d="M11.6 36.7C11.6 30.6 14.6 33.7 24.5 33.7C34.4 33.7 37.4 30.6 37.4 36.7C37.4 45.4 31.3 47 24.5 47C17.7 47 11.6 45.3 11.6 36.7Z" fill="#F4A19A"/>
<path d="M20.3 38.1C19.4 35.6 17.7 34.2 16.5 34.9C15.3 35.7 15.1 38.4 15.9 40.9C16.8 43.4 18.5 44.8 19.7 44.1C20.9 43.3 21.2 40.6 20.3 38.1ZM32.5 34.9C31.3 34.1 29.6 35.5 28.7 38.1C27.8 40.6 28.1 43.3 29.2 44.1C30.4 44.9 32.1 43.5 33 40.9C33.9 38.4 33.7 35.7 32.5 34.9Z" fill="#BC6464"/>
</svg>
