<svg width="64" height="64" viewBox="0 0 64 64" fill="none" xmlns="http://www.w3.org/2000/svg">
<path d="M32 53.3334H5.33334V48.0001H20.6667C18.6667 40.5067 12.8267 34.6667 5.33334 32.6934C7.04 32.2667 8.82667 32.0001 10.6667 32.0001C22.4533 32.0001 32 41.5467 32 53.3334ZM58.6667 32.6934C56.96 32.2667 55.1733 32.0001 53.3333 32.0001C45.52 32.0001 38.6667 36.2134 34.9867 42.4801C35.76 44.2401 36.4 46.0801 36.7733 48.0001C37.12 49.7334 37.3333 51.5201 37.3333 53.3334H58.6667V48.0001H43.3067C45.3333 40.5067 51.1733 34.6667 58.6667 32.6934ZM41.7067 29.3334C43.7867 23.8134 47.6533 19.1467 52.6133 16.0001C41.1733 16.4267 32 25.7867 32 37.3334C34.5333 34.0001 37.8667 31.2534 41.7067 29.3334ZM30.4533 23.6001C29.3491 20.6994 27.6627 18.0555 25.498 15.8312C23.3334 13.607 20.7363 11.8494 17.8667 10.6667C21.7067 15.6267 24 21.8134 24 28.5601C24 29.1201 23.92 29.6534 23.8933 30.1867C25.04 30.8267 26.1067 31.5734 27.1467 32.3734C27.7172 29.2753 28.837 26.3041 30.4533 23.6001Z" fill="#38D865"/>
</svg>
