<svg width="64" height="64" viewBox="0 0 64 64" fill="none" xmlns="http://www.w3.org/2000/svg">
<path d="M12.8 50.6079C12.8 48.9551 14.0352 47.5583 15.68 47.3759C28.0239 46.0095 36.0319 46.1327 48.3487 47.4063C48.9637 47.4709 49.5467 47.7132 50.0263 48.1036C50.5059 48.4941 50.8614 49.0157 51.0494 49.6049C51.2375 50.1941 51.2498 50.8252 51.085 51.4213C50.9202 52.0174 50.5854 52.5526 50.1215 52.9615C35.5855 65.6319 27.2783 65.4575 13.824 52.9743C13.168 52.3663 12.8 51.5007 12.8 50.6079Z" fill="#FCC21B"/>
<path fill-rule="evenodd" clip-rule="evenodd" d="M48.1839 48.9967C35.9647 47.7327 28.0719 47.6143 15.8544 48.9663C15.4522 49.0132 15.0814 49.2067 14.8131 49.5099C14.5447 49.8131 14.3976 50.2046 14.4 50.6095C14.4 51.0671 14.5904 51.5007 14.912 51.8015C21.5807 57.9871 26.6335 60.7823 31.5727 60.7999C36.5295 60.8175 41.8543 58.0447 49.0703 51.7567C49.2995 51.5527 49.4646 51.2864 49.5453 50.9903C49.6261 50.6943 49.6191 50.3811 49.5252 50.0889C49.4313 49.7967 49.2546 49.5381 49.0164 49.3445C48.7783 49.1509 48.4891 49.0306 48.1839 48.9983V48.9967ZM15.504 45.7855C27.9775 44.4047 36.1023 44.5295 48.5151 45.8143C49.4404 45.9109 50.3174 46.2752 51.0389 46.8625C51.7603 47.4499 52.2948 48.2349 52.577 49.1213C52.8592 50.0078 52.8768 50.9573 52.6277 51.8537C52.3785 52.75 51.8735 53.5542 51.1743 54.1679C43.8543 60.5487 37.7583 64.0239 31.5631 63.9999C25.3503 63.9775 19.5231 60.4431 12.7376 54.1471C12.2517 53.6946 11.8644 53.1467 11.5999 52.5378C11.3353 51.9288 11.1992 51.2719 11.2 50.6079C11.1976 49.415 11.6355 48.2632 12.4297 47.373C13.2238 46.4829 14.3185 45.9171 15.504 45.7839V45.7855Z" fill="#FCC21B"/>
<path d="M44.7999 25.5999C44.7999 28.9947 43.4513 32.2504 41.0509 34.6509C38.6504 37.0514 35.3947 38.3999 31.9999 38.3999C28.6052 38.3999 25.3494 37.0514 22.949 34.6509C20.5485 32.2504 19.2 28.9947 19.2 25.5999C19.2 22.2052 20.5485 18.9495 22.949 16.549C25.3494 14.1485 28.6052 12.8 31.9999 12.8C35.3947 12.8 38.6504 14.1485 41.0509 16.549C43.4513 18.9495 44.7999 22.2052 44.7999 25.5999Z" fill="#FCC21B"/>
<path fill-rule="evenodd" clip-rule="evenodd" d="M31.9999 35.1999C34.546 35.1999 36.9878 34.1885 38.7881 32.3882C40.5885 30.5878 41.5999 28.146 41.5999 25.5999C41.5999 23.0539 40.5885 20.6121 38.7881 18.8117C36.9878 17.0114 34.546 16 31.9999 16C29.4539 16 27.0121 17.0114 25.2117 18.8117C23.4114 20.6121 22.3999 23.0539 22.3999 25.5999C22.3999 28.146 23.4114 30.5878 25.2117 32.3882C27.0121 34.1885 29.4539 35.1999 31.9999 35.1999ZM31.9999 38.3999C35.3947 38.3999 38.6504 37.0514 41.0509 34.6509C43.4513 32.2504 44.7999 28.9947 44.7999 25.5999C44.7999 22.2052 43.4513 18.9495 41.0509 16.549C38.6504 14.1485 35.3947 12.8 31.9999 12.8C28.6052 12.8 25.3494 14.1485 22.949 16.549C20.5485 18.9495 19.2 22.2052 19.2 25.5999C19.2 28.9947 20.5485 32.2504 22.949 34.6509C25.3494 37.0514 28.6052 38.3999 31.9999 38.3999Z" fill="#FCC21B"/>
<path fill-rule="evenodd" clip-rule="evenodd" d="M31.9999 60.7999C47.9055 60.7999 60.7999 47.9055 60.7999 31.9999C60.7999 16.0944 47.9055 3.19999 31.9999 3.19999C16.0944 3.19999 3.19999 16.0944 3.19999 31.9999C3.19999 47.9055 16.0944 60.7999 31.9999 60.7999ZM31.9999 63.9999C49.6735 63.9999 63.9999 49.6735 63.9999 31.9999C63.9999 14.3264 49.6735 0 31.9999 0C14.3264 0 0 14.3264 0 31.9999C0 49.6735 14.3264 63.9999 31.9999 63.9999Z" fill="black"/>
</svg>
